<?xml version="1.0" standalone="no"?><!DOCTYPE svg PUBLIC "-//W3C//DTD SVG 1.1//EN" "http://www.w3.org/Graphics/SVG/1.1/DTD/svg11.dtd"><svg t="1624521585404" class="icon" viewBox="0 0 1024 1024" version="1.1" xmlns="http://www.w3.org/2000/svg" p-id="9600" xmlns:xlink="http://www.w3.org/1999/xlink" width="200" height="200"><defs><style type="text/css"></style></defs><path d="M194.6 868.4c-12.8 19.4-15.5 28.4-17.2 41.1-1.5 10.6-11.1 17.9-21.6 16.6-10.6-1.5-17.9-11.1-16.6-21.6 6.6-49.3 63.2-119.7 156.2-209 27.8-26.6 47-46.3 65.5-67.7 7-8.1 19.2-9 27.2-2.1 8.1 6.9 9 19.1 2.1 27.2-19.5 22.6-39.5 43-68 70.4-41.3 39.6-75.2 75.7-99.8 106.6h165.7c-12.5-15.7-27.5-32.9-44.7-51.3-7.2-7.8-6.9-20 0.9-27.3 7.8-7.2 20-6.9 27.2 0.9 59.4 63.3 94.7 113.9 99.8 152.2 1.5 10.6-6 20.2-16.6 21.6-10.6 1.5-20.3-6-21.6-16.6-1.5-10.9-7.5-24.7-17.5-41.1h-221zM616.9 581.5l124.2 71.8v143.4l-124.2 71.7-124.1-71.7V653.3zM222.4 193.6c12.5 15.8 27.5 33 44.7 51.3 7.2 7.8 6.9 20-0.8 27.2-7.8 7.3-20 7-27.2-0.8-59.4-63.3-94.7-113.9-99.8-152.2-1.5-10.6 6-20.2 16.6-21.7 10.6-1.5 20.2 6 21.6 16.6 1.6 11.3 12.8 38.7 14.5 41.5 0.2 0.3 220.3-0.3 220.9-0.3 10-16.3 16-30.1 17.4-41.2 1.5-10.6 11.1-17.9 21.6-16.6 10.6 1.5 17.9 11.1 16.6 21.7-6.6 49.3-63.2 119.7-156.2 209-36.9 35.4-66.8 67.4-89.1 96.9h89v38.5l-114.1-0.1c-20.8 36.4-26.9 66.6-18.1 96.5h128.3v38.5H200.9c2 2.4 4 4.9 6.3 7.3 22.4 24.1 40.6 40.9 60 53.8 8.8 5.9 11.3 17.9 5.4 26.7s-17.9 11.3-26.7 5.4c-22.5-15-42.8-33.5-67-59.8-49.9-53.9-51.2-117.6-14.6-185.9 25.3-47.2 61.4-88.3 121.4-145.8 41.1-39.6 75.1-75.6 99.6-106.6H222.4z" p-id="9601" fill="#2c2c2c"></path><path d="M473.2 331.7l124.7 72v144l-124.7 72-124.7-72v-144zM761.5 331.7l124.7 72v144l-124.7 72-124.7-72v-144z" p-id="9602" fill="#2c2c2c"></path></svg>