<?xml version="1.0" standalone="no"?><!DOCTYPE svg PUBLIC "-//W3C//DTD SVG 1.1//EN" "http://www.w3.org/Graphics/SVG/1.1/DTD/svg11.dtd"><svg t="1624521544764" class="icon" viewBox="0 0 1024 1024" version="1.1" xmlns="http://www.w3.org/2000/svg" p-id="9337" xmlns:xlink="http://www.w3.org/1999/xlink" width="200" height="200"><defs><style type="text/css"></style></defs><path d="M599.594667 471.594667h-68.565334V403.072a19.072 19.072 0 1 0-38.101333 0v68.522667H424.405333a19.072 19.072 0 0 0 0 38.144h68.522667v68.522666a19.029333 19.029333 0 1 0 38.101333 0v-68.522666h68.565334a19.114667 19.114667 0 0 0 0-38.144z" fill="#2c2c2c" p-id="9338"></path><path d="M661.333333 128a362.666667 362.666667 0 1 0 0 725.333333 362.666667 362.666667 0 0 0 0-725.333333z m0 64a298.666667 298.666667 0 1 1 0 597.333333 298.666667 298.666667 0 0 1 0-597.333333z" fill="#2c2c2c" p-id="9339"></path><path d="M362.666667 128a362.666667 362.666667 0 1 0 0 725.333333 362.666667 362.666667 0 0 0 0-725.333333z m0 64a298.666667 298.666667 0 1 1 0 597.333333 298.666667 298.666667 0 0 1 0-597.333333z" fill="#2c2c2c" p-id="9340"></path></svg>