<?xml version="1.0" standalone="no"?><!DOCTYPE svg PUBLIC "-//W3C//DTD SVG 1.1//EN" "http://www.w3.org/Graphics/SVG/1.1/DTD/svg11.dtd"><svg t="1624521800807" class="icon" viewBox="0 0 1024 1024" version="1.1" xmlns="http://www.w3.org/2000/svg" p-id="11528" xmlns:xlink="http://www.w3.org/1999/xlink" width="200" height="200"><defs><style type="text/css"></style></defs><path d="M518.656 854.016h-43.008a66.6624 66.6624 0 0 1-61.952-46.08c-8.9088-26.9312-9.6256-69.4272-9.3184-97.28h17.92a35.6352 35.6352 0 1 0 0-71.3728H194.8672c-47.9232 0-80.896-47.9232-87.6544-93.184L71.3728 188.416C71.9872 146.2272 95.744 101.376 147.0464 101.376a35.6352 35.6352 0 1 0 0-71.3728C63.1808 30.0032 0 98.9184 0 190.2592c0 1.1264 0 2.3552 0.2048 3.4816L36.2496 553.984l0.2048 1.536c11.1616 77.1072 69.12 155.136 158.4128 155.136h138.1376c-0.4096 33.0752 0.6144 82.5344 12.9024 119.7056 18.7392 56.832 70.8608 95.1296 129.7408 95.1296h43.008a35.6352 35.6352 0 1 0 0-71.3728z m246.1696-449.9456c-142.336 0-258.048 116.9408-258.048 260.7104s115.712 260.7104 258.048 260.7104c142.336 0 258.1504-116.9408 258.1504-260.7104S907.264 404.0704 764.928 404.0704z m0 450.048c-102.912 0-186.6752-84.992-186.6752-189.44 0-104.3456 83.7632-189.2352 186.6752-189.2352 103.0144 0 186.7776 84.992 186.7776 189.3376 0 104.448-83.7632 189.3376-186.7776 189.3376z m68.096-259.4816l-96.9728 91.136-27.2384-41.2672a35.6352 35.6352 0 1 0-59.5968 39.3216l50.5856 76.5952c0.3072 0.512 0.8192 0.8192 1.1264 1.2288 0.8192 1.2288 1.6384 2.4576 2.6624 3.4816l1.3312 1.1264a36.5568 36.5568 0 0 0 14.4384 8.4992l2.3552 0.7168a35.4304 35.4304 0 0 0 13.824 0.4096l1.7408-0.4096a36.7616 36.7616 0 0 0 10.0352-3.8912l1.536-0.8192 0.4096-0.2048 1.8432-1.536 2.9696-2.2528L881.664 646.656a35.7376 35.7376 0 0 0-48.8448-52.0192zM589.0048 101.376c51.4048 0 75.1616 45.056 75.6736 87.3472l-12.0832 132.5056a35.6352 35.6352 0 1 0 71.0656 6.4512l12.288-134.144a36.864 36.864 0 0 0 0.1024-3.2768c0-91.3408-63.1808-160.256-147.0464-160.256a35.6352 35.6352 0 1 0 0 71.3728zM256.512 0.512a35.6352 35.6352 0 0 0-35.7376 35.6352v35.7376a35.6352 35.6352 0 1 0 71.3728 0V36.1472a35.6352 35.6352 0 0 0-35.6352-35.6352z m214.016 0a35.6352 35.6352 0 0 0-35.6352 35.6352v35.7376a35.6352 35.6352 0 1 0 71.3728 0V36.1472a35.6352 35.6352 0 0 0-35.6352-35.6352z m-143.36 499.5072v59.4944a35.6352 35.6352 0 1 0 71.4752 0v-59.392a35.6352 35.6352 0 1 0-71.3728 0z m124.1088-348.3648a35.7376 35.7376 0 0 0-49.2544 10.752c-0.2048 0.3072-15.36 22.2208-38.912 22.2208-22.7328 0-36.9664-20.6848-37.888-22.1184a35.6352 35.6352 0 0 0-60.416 37.9904c12.8 20.6848 47.9232 55.5008 98.304 55.5008 50.2784 0 85.9136-34.6112 99.0208-55.0912a35.7376 35.7376 0 0 0-10.8544-49.2544z" fill="#606266" p-id="11529"></path></svg>