<?xml version="1.0" standalone="no"?><!DOCTYPE svg PUBLIC "-//W3C//DTD SVG 1.1//EN" "http://www.w3.org/Graphics/SVG/1.1/DTD/svg11.dtd"><svg t="1624521682319" class="icon" viewBox="0 0 1024 1024" version="1.1" xmlns="http://www.w3.org/2000/svg" p-id="10172" xmlns:xlink="http://www.w3.org/1999/xlink" width="200" height="200"><defs><style type="text/css"></style></defs><path d="M472.477193 488.645614c62.877193-79.045614 150.905263-109.585965 265.880702-93.417544-52.098246 105.992982-161.684211 158.091228-269.473684 143.719298 3.592982 34.133333 17.964912 64.673684 48.505263 91.621053 21.557895 17.964912 0 59.284211-34.133334 30.540351-71.859649-66.470175-79.045614-158.091228-19.761403-271.270176 1.796491-3.592982 3.592982-7.185965 5.389474-12.575438-98.807018-8.982456-181.445614-79.045614-203.003509-181.445614 109.585965 12.575439 179.649123 66.470175 210.189473 161.68421 19.761404-61.080702 17.964912-149.108772-12.575438-217.375438C449.122807 109.585965 494.035088 89.824561 506.610526 125.754386c12.575439 34.133333 21.557895 66.470175 25.150878 100.603509 41.319298-59.284211 105.992982-84.435088 188.631578-80.842106-32.336842 80.842105-105.992982 127.550877-186.835087 127.550878-1.796491 55.691228-16.168421 109.585965-41.319299 165.277193-8.982456 16.168421-16.168421 34.133333-19.761403 50.301754zM161.684211 767.101754l12.575438 12.575439c5.389474 3.592982 8.982456 1.796491 14.37193-1.796491l147.312281-147.312281-25.150878-26.947368-147.31228 147.31228c-5.389474 5.389474-5.389474 10.778947-1.796491 16.168421z m127.550877-211.985965c8.982456-8.982456 19.761404-8.982456 28.743859 0l134.736842 141.922807c10.778947 10.778947 10.778947 21.557895-1.796491 34.133334l-143.719298 141.922807c-53.894737 48.505263-125.754386 35.929825-165.277193-5.389474-43.115789-44.912281-48.505263-107.789474-5.389474-159.887719l152.701755-152.701755z m310.792982 159.88772l136.533334 136.533333c37.726316 30.540351 91.621053 25.150877 120.364912-17.964912 21.557895-32.336842 21.557895-73.65614-7.185965-102.4l-136.533333-134.736842-113.178948 118.568421z m129.347369-156.294737l152.701754 152.701754c41.319298 52.098246 35.929825 114.975439-5.389474 159.88772-39.522807 41.319298-111.382456 53.894737-165.277193 5.389473l-143.719298-141.922807c-12.575439-12.575439-12.575439-23.354386-1.796491-34.133333l134.736842-141.922807c8.982456-8.982456 17.964912-8.982456 28.74386 0z m-70.063158 143.719298c5.389474-5.389474 16.168421-5.389474 21.557894 0l116.77193 116.77193c5.389474 5.389474 5.389474 16.168421 0 21.557895-8.982456 8.982456-17.964912 8.982456-25.150877 3.592982l-116.77193-116.77193c-5.389474-5.389474-5.389474-16.168421 0-21.557894l3.592983-3.592983z" p-id="10173"></path></svg>