<?xml version="1.0" standalone="no"?><!DOCTYPE svg PUBLIC "-//W3C//DTD SVG 1.1//EN" "http://www.w3.org/Graphics/SVG/1.1/DTD/svg11.dtd"><svg t="1624525545001" class="icon" viewBox="0 0 1024 1024" version="1.1" xmlns="http://www.w3.org/2000/svg" p-id="4979" xmlns:xlink="http://www.w3.org/1999/xlink" width="200" height="200"><defs><style type="text/css"></style></defs><path d="M329.329778 142.677333v85.048889H238.478222V295.822222H329.386667v85.048889h72.647111V295.822222h90.794666V227.726222H401.976889V142.677333H329.329778z m435.882666 367.502223c0-3.413333-3.640889-6.826667-7.281777-6.826667h-490.382223c-3.640889 0-7.224889 3.413333-7.224888 6.826667v51.029333c0 3.413333 3.584 6.826667 7.224888 6.826667h490.382223c3.640889 0 7.281778-3.413333 7.281777-6.826667v-51.029333z m0 149.731555c0-3.413333-3.640889-6.826667-7.281777-6.826667h-490.382223c-3.640889 0-7.224889 3.413333-7.224888 6.826667v51.029333c0 3.413333 3.584 6.826667 7.224888 6.826667h490.382223c3.640889 0 7.281778-3.413333 7.281777-6.826667V659.911111z m-501.304888 214.357333h490.382222c3.640889 0 7.281778-3.413333 7.281778-6.826666v-54.442667c0-3.413333-3.640889-6.826667-7.281778-6.826667H263.964444c-3.584 0-7.224889 3.413333-7.224888 6.826667v51.086222c0 6.826667 3.640889 10.24 7.224888 10.24zM728.860444 295.822222c-39.936 0-72.647111-30.663111-72.647111-68.096V108.657778l199.793778 187.164444h-127.146667zM652.629333 6.542222H579.868444v234.837334c0 68.039111 58.140444 122.481778 130.787556 122.481777h178.005333v530.830223a65.991111 65.991111 0 0 1-65.422222 64.682666H194.901333c-36.295111 0-65.365333-27.249778-65.365333-64.682666V135.850667c0-34.019556 29.013333-64.625778 65.422222-64.625778h297.813334V3.128889H165.831111C104.106667 3.128889 56.888889 47.388444 56.888889 105.244444v816.696889C56.888889 979.740444 104.106667 1024 165.831111 1024h690.176c61.724444 0 108.942222-44.259556 108.942222-102.058667V292.408889L652.629333 6.542222z" p-id="4980"></path></svg>