<?xml version="1.0" standalone="no"?><!DOCTYPE svg PUBLIC "-//W3C//DTD SVG 1.1//EN" "http://www.w3.org/Graphics/SVG/1.1/DTD/svg11.dtd"><svg t="1624525327871" class="icon" viewBox="0 0 1024 1024" version="1.1" xmlns="http://www.w3.org/2000/svg" p-id="2065" xmlns:xlink="http://www.w3.org/1999/xlink" width="200" height="200"><defs><style type="text/css"></style></defs><path d="M287.36 414.912h444.224a31.808 31.808 0 0 0 31.744-31.936 31.872 31.872 0 0 0-31.744-31.936H287.36a31.808 31.808 0 0 0-31.744 32c0 17.6 14.208 31.872 31.744 31.872z m126.912-223.36h190.4c52.544 0 95.168-42.88 95.168-95.808C699.84 42.88 657.28 0 604.672 0H414.272C361.6 0 319.04 42.88 319.04 95.744c0 52.928 42.624 95.744 95.232 95.744z m0-127.68h190.4a31.872 31.872 0 1 1 0 63.808H414.272a31.808 31.808 0 0 1-31.744-31.936c0-17.6 14.208-31.872 31.744-31.872z m349.056 510.592a31.808 31.808 0 0 0-31.744-31.872H287.36a31.808 31.808 0 0 0-31.744 31.872c0 17.664 14.208 31.936 31.744 31.936h444.288a31.808 31.808 0 0 0 31.744-31.936zM858.56 63.872h-95.232v63.808h95.232c17.536 0 31.68 14.272 31.68 31.936v765.952a31.808 31.808 0 0 1-31.68 31.936H160.32a31.808 31.808 0 0 1-31.68-31.936V159.616c0-17.664 14.208-31.936 31.744-31.936h95.168V63.872H160.384c-52.544 0-95.232 42.88-95.232 95.744v765.952c0 52.928 42.688 95.744 95.232 95.744h698.176c52.48 0 95.168-42.88 95.168-95.744V159.616c0-52.928-42.624-95.744-95.168-95.744zM287.296 734.08a31.808 31.808 0 0 0-31.744 31.936c0 17.6 14.208 31.872 31.744 31.872h253.888a31.808 31.808 0 0 0 31.744-31.872 31.808 31.808 0 0 0-31.744-32H287.36z" p-id="2066"></path></svg>