<?xml version="1.0" standalone="no"?><!DOCTYPE svg PUBLIC "-//W3C//DTD SVG 1.1//EN" "http://www.w3.org/Graphics/SVG/1.1/DTD/svg11.dtd"><svg t="1624521324504" class="icon" viewBox="0 0 1024 1024" version="1.1" xmlns="http://www.w3.org/2000/svg" p-id="5480" xmlns:xlink="http://www.w3.org/1999/xlink" width="200" height="200"><defs><style type="text/css"></style></defs><path d="M356.649127 627.341728c-23.130767 0-26.118815 18.752049-26.118816 41.883839s18.722373 41.884862 41.849047 41.884862c23.170676-0.008186 41.887932-18.753072 41.887932-41.884862 0.004093-23.130767-34.454651-41.883839-57.621233-41.883839h0.00307z m140.889539 113.244977c-10.343558 0-18.725443 8.380861-18.725443 18.72135 0.00307 10.339465 8.380861 18.721349 18.725443 18.721349 10.347652 0 18.720326-8.380861 18.720326-18.721349 0.00614-10.339465-8.376768-18.721349-18.720326-18.72135z m-79.335748-405.717584a15.65246 15.65246 0 0 0-4.562913 11.074198c0.004093 8.688876 7.041356 15.737395 15.733301 15.737394a15.663717 15.663717 0 0 0 5.231131-0.895391l0.004093-25.916201h-16.405612z m3.308342 181.947572c-13.025639 0-23.603534 10.563569-23.603533 23.600463 0 13.022569 10.578918 23.600464 23.600463 23.600464s23.600464-10.570732 23.600464-23.600464c0-1.321086-0.118703-2.604309-0.315178-3.862973-2.323924-3.810785-4.209873-7.813951-5.742782-11.938889a23.551345 23.551345 0 0 0-17.542504-7.797578h0.00307v-0.001023z m-35.285573-116.237119a15.738418 15.738418 0 0 0-14.635296 9.902514l0.004093 11.646225c2.320854 5.803158 7.982796 9.909677 14.631203 9.909677 8.692969 0 15.733301-7.040333 15.733301-15.729208 0-8.696039-7.044426-15.729208-15.733301-15.729208z m98.294503 200.781484L610.656753 806.937746H320.30034c-3.342111-13.258952-15.337283-23.085742-29.618516-23.077555-14.278163 0-26.274357 9.810417-29.615445 23.077555h-65.959116l126.572491-205.769069 162.840436 0.192381zM677.40893 113.754583c0-31.608842-13.137179-66.021537-46.025151-73.961354-19.619811-4.751201-15.733301-31.258872 2.597146-31.258872h295.006308c18.322261 0 21.625487 26.638654 3.656265 30.975416-35.207803 8.52003-46.930775 41.814254-46.930775 71.326346v802.233618c0 126.572491-171.529312 133.348811-203.38784 33.910253 16.678834-2.574633 31.504465-8.688876 44.088036-17.393101 4.686733 16.954103 16.602087 28.355758 30.88332 34.024863 8.020658 3.180429 16.793444 4.808506 25.605116 4.847392 8.687852 0.030699 17.261094-1.482768 25.012623-4.586449 17.231419-6.883767 30.597817-23.553392 30.597818-50.802958h0.161682l0.037862-802.240781c0-18.744885 3.226478-37.803925 10.616781-55.093672h-136.365512c7.873302 18.283375 11.44668 38.595963 11.446681 58.020322l-0.037863 197.515098h66.950698v31.470696h-66.950698v47.195811h31.550514v31.466602h-31.550514l-0.038885 47.191718h66.989583v31.466603h-66.989583V547.263061h31.589399v31.466603h-31.589399v47.191717h66.989583v31.466603H724.29468v47.199904h31.627261v31.466603H733.105328l-55.811008-90.989135 0.11461-531.310773z" fill="#2c2c2c" p-id="5481"></path><path d="M347.953088 228.642987v43.927377c0 8.308206 5.466491 15.103969 12.115921 15.103969l85.948339-0.004093c6.644314 0 12.068849-6.79167 12.068849-15.099876v-43.927377h23.719167l0.038886 271.376168c0 4.494352 1.216709 8.688876 3.421929 12.253044l190.41439 310.444897c5.070472 8.250901 7.313555 31.420554-11.368909 31.420554H141.257929c-18.916801 0-15.850981-24.014902-10.738554-32.334364l190.377551-309.401127a23.658792 23.658792 0 0 0 3.494584-12.356398c0.004093-0.00307 0.038886-254.846736 0.038885-271.398681l23.522693-0.004093z m316.357549 672.510373c54.751889 0 78.428077-61.228381 50.542015-104.593964l-186.003949-303.23572V228.642987l8.889443 0.004093c13.021545 0 23.600464-10.566639 23.600464-23.600464s-10.578918-23.600464-23.600464-23.600463h-79.651949v-35.998817c0-8.3123-5.424535-15.107039-12.068849-15.107039h-85.948339c-6.64943 0-12.115921 6.79167-12.115921 15.107039v35.998817H268.341048c-13.059408 0-23.600464 10.563569-23.600464 23.600463 0 13.032802 10.545149 23.59637 23.600464 23.596371l8.889443 0.004093c0 157.720846-0.038886-27.609769-0.038885 264.742087L90.319894 797.104817c-25.37078 41.239157-5.504353 104.049566 50.937011 104.049566h523.053732z" fill="#2c2c2c" p-id="5482"></path></svg>