<?xml version="1.0" standalone="no"?><!DOCTYPE svg PUBLIC "-//W3C//DTD SVG 1.1//EN" "http://www.w3.org/Graphics/SVG/1.1/DTD/svg11.dtd"><svg t="1624521740131" class="icon" viewBox="0 0 1024 1024" version="1.1" xmlns="http://www.w3.org/2000/svg" p-id="10558" xmlns:xlink="http://www.w3.org/1999/xlink" width="200" height="200"><defs><style type="text/css"></style></defs><path d="M801.76285 72.532307h-48.843305a40.784159 40.784159 0 1 0 0 81.44621h48.843305a80.225128 80.225128 0 0 1 80.103019 80.10302v604.191676a104.402563 104.402563 0 0 1-104.280455 104.158346H245.926045a104.280455 104.280455 0 0 1-104.158347-104.158346V234.081537a80.103019 80.103019 0 0 1 79.980911-80.10302h48.843305a40.784159 40.784159 0 1 0 0-81.44621h-48.843305A161.793446 161.793446 0 0 0 60.19938 234.081537v604.191676a185.970882 185.970882 0 0 0 185.726665 185.726665h531.659369A185.970882 185.970882 0 0 0 963.800512 838.273213V234.081537A161.671338 161.671338 0 0 0 801.76285 72.532307z" fill="#2c2c2c" p-id="10559"></path><path d="M366.813224 81.568318h104.158346v15.141425h-79.980911a40.784159 40.784159 0 1 0 0 81.44621h241.652249a40.784159 40.784159 0 0 0 0-81.44621h-80.103019V81.568318h104.158347a40.784159 40.784159 0 0 0 0-81.568318H366.813224a40.784159 40.784159 0 1 0 0 81.568318zM270.103481 372.063872h483.304497a40.784159 40.784159 0 0 0 0-81.568319H270.103481a40.784159 40.784159 0 0 0 0 81.568319zM753.407978 519.814868H270.103481a40.784159 40.784159 0 1 0 0 81.44621h483.304497a40.784159 40.784159 0 1 0 0-81.44621zM753.407978 749.134182H270.103481a40.784159 40.784159 0 1 0 0 81.44621h483.304497a40.784159 40.784159 0 1 0 0-81.44621z" fill="#2c2c2c" p-id="10560"></path></svg>