<?xml version="1.0" standalone="no"?><!DOCTYPE svg PUBLIC "-//W3C//DTD SVG 1.1//EN" "http://www.w3.org/Graphics/SVG/1.1/DTD/svg11.dtd"><svg t="1624815781341" class="icon" viewBox="0 0 1024 1024" version="1.1" xmlns="http://www.w3.org/2000/svg" p-id="8506" xmlns:xlink="http://www.w3.org/1999/xlink" width="200" height="200"><defs><style type="text/css"></style></defs><path d="M512 992c-35.2 0-73.6-3.2-112-12.8-12.8-3.2-22.4-12.8-25.6-28.8l-9.6-76.8c-3.2 0-6.4-3.2-9.6-3.2l-60.8 48c-6.4 9.6-22.4 9.6-35.2 3.2-64-38.4-118.4-92.8-156.8-156.8C96 752 96 736 105.6 726.4l48-60.8c0-3.2-3.2-6.4-3.2-9.6l-76.8-9.6c-12.8 0-25.6-12.8-28.8-25.6C35.2 585.6 32 547.2 32 512s3.2-73.6 12.8-112c3.2-12.8 12.8-22.4 28.8-25.6l76.8-9.6c0-3.2 3.2-6.4 3.2-9.6l-48-57.6C96 288 96 272 102.4 259.2c38.4-64 92.8-118.4 156.8-156.8C272 96 288 96 297.6 105.6l60.8 48c3.2 0 6.4-3.2 9.6-3.2l9.6-76.8c3.2-12.8 12.8-25.6 25.6-28.8 73.6-19.2 147.2-19.2 220.8 0 12.8 3.2 22.4 12.8 25.6 28.8l9.6 76.8c3.2 0 6.4 3.2 9.6 3.2l60.8-48c6.4-9.6 22.4-9.6 35.2-3.2 64 38.4 118.4 92.8 156.8 156.8 6.4 12.8 6.4 28.8-3.2 38.4l-48 60.8c0 3.2 3.2 6.4 3.2 9.6l76.8 9.6c12.8 0 25.6 12.8 28.8 25.6 9.6 38.4 12.8 73.6 12.8 112s-3.2 73.6-12.8 112c-3.2 12.8-12.8 22.4-28.8 25.6l-76.8 9.6c0 3.2-3.2 6.4-3.2 9.6l48 60.8c9.6 9.6 9.6 25.6 3.2 35.2-38.4 64-92.8 118.4-156.8 156.8-12.8 3.2-28.8 3.2-38.4-6.4l-60.8-48c-3.2 0-6.4 3.2-9.6 3.2l-9.6 76.8c-3.2 12.8-12.8 25.6-25.6 28.8-35.2 9.6-73.6 12.8-108.8 12.8z m-73.6-70.4c51.2 9.6 99.2 9.6 150.4 0l9.6-73.6c0-12.8 9.6-22.4 22.4-25.6 12.8-3.2 25.6-9.6 38.4-16 9.6-6.4 25.6-3.2 35.2 3.2l57.6 44.8c41.6-28.8 76.8-64 105.6-105.6l-44.8-57.6c-6.4-9.6-9.6-22.4-3.2-35.2 6.4-12.8 12.8-25.6 16-38.4 3.2-12.8 12.8-19.2 25.6-22.4l73.6-9.6c3.2-25.6 6.4-51.2 6.4-73.6s-3.2-48-6.4-73.6l-73.6-9.6c-12.8 0-22.4-9.6-25.6-22.4-3.2-12.8-9.6-25.6-16-38.4-6.4-9.6-3.2-25.6 3.2-35.2l44.8-57.6c-28.8-41.6-64-76.8-105.6-105.6l-57.6 44.8c-16 9.6-28.8 9.6-38.4 6.4-12.8-6.4-25.6-12.8-38.4-16-12.8-3.2-19.2-12.8-22.4-25.6l-9.6-73.6c-51.2-9.6-99.2-9.6-150.4 0l-9.6 73.6c0 12.8-9.6 22.4-22.4 25.6-12.8 3.2-25.6 9.6-38.4 16-6.4 3.2-22.4 3.2-32-6.4l-57.6-44.8c-41.6 28.8-76.8 64-105.6 105.6l44.8 57.6c9.6 12.8 9.6 25.6 6.4 35.2-6.4 12.8-12.8 25.6-16 38.4-3.2 12.8-12.8 19.2-25.6 22.4l-73.6 9.6C99.2 464 96 486.4 96 512s3.2 48 6.4 73.6l73.6 9.6c12.8 0 22.4 9.6 25.6 22.4 3.2 12.8 9.6 25.6 16 38.4 6.4 9.6 6.4 22.4-3.2 35.2l-44.8 57.6c28.8 41.6 64 76.8 105.6 105.6l57.6-44.8c9.6-6.4 22.4-9.6 35.2-3.2 12.8 6.4 25.6 12.8 38.4 16 12.8 3.2 19.2 12.8 22.4 25.6l9.6 73.6zM512 736c-124.8 0-224-99.2-224-224s99.2-224 224-224 224 99.2 224 224-99.2 224-224 224z m0-384c-89.6 0-160 70.4-160 160s70.4 160 160 160 160-70.4 160-160-70.4-160-160-160z" p-id="8507"></path></svg>