<?xml version="1.0" standalone="no"?><!DOCTYPE svg PUBLIC "-//W3C//DTD SVG 1.1//EN" "http://www.w3.org/Graphics/SVG/1.1/DTD/svg11.dtd"><svg t="1624521401054" class="icon" viewBox="0 0 1025 1024" version="1.1" xmlns="http://www.w3.org/2000/svg" p-id="6011" xmlns:xlink="http://www.w3.org/1999/xlink" width="200.1953125" height="200"><defs><style type="text/css"></style></defs><path d="M993.962667 503.658667c-1.536-1.536-3.370667-2.666667-4.992-4.096-0.64-0.874667-1.002667-1.877333-1.792-2.666667l-175.04-175.04 105.578667-105.578667 66.389333 66.389333c4.138667 4.16 9.621333 6.250667 15.104 6.250667 5.461333 0 10.965333-2.090667 15.104-6.250667 8.362667-8.362667 8.362667-21.845333 0-30.208l-142.613333-142.613333-20.352-20.373333c0 0-0.021333 0-0.021333-0.021333l-81.450667-81.450667c-8.384-8.362667-21.866667-8.362667-30.208 0-8.384 8.362667-8.384 21.845333 0 30.208l66.368 66.368-105.6 105.578667-175.04-175.04c-19.413333-19.456-45.248-30.144-72.725333-30.144-27.456 0-53.290667 10.709333-72.746667 30.144-40.064 40.106667-40.064 105.344 0 145.450667 19.434667 19.456 45.269333 30.144 72.746667 30.144 27.477333 0 53.312-10.709333 72.725333-30.165333 15.530667-15.509333 25.173333-35.178667 28.544-56.448l61.930667 61.952L60.608 741.376c-4.032 3.968-6.250667 9.408-6.250667 15.082667s2.24 11.093333 6.250667 15.125333l79.957333 79.957333-134.272 134.250667c-8.362667 8.341333-8.362667 21.866667 0 30.208 4.16 4.16 9.621333 6.293333 15.104 6.293333s10.965333-2.133333 15.104-6.293333l134.272-134.250667 79.978667 79.957333c4.181333 4.16 9.642667 6.250667 15.125333 6.250667 5.44 0 10.901333-2.090667 15.104-6.250667l244.394667-244.437333c0.021333 0 0.021333 0 0.042667-0.021333s0.021333-0.042667 0.021333-0.042667l310.784-310.826667 68.757333 68.757333c-21.269333 3.370667-40.96 13.034667-56.490667 28.544-40.042667 40.085333-40.042667 105.365333 0 145.450667 19.413333 19.413333 45.290667 30.122667 72.746667 30.122667 27.498667 0 53.333333-10.709333 72.746667-30.122667C1034.048 609.045333 1034.048 543.744 993.962667 503.658667zM591.722667 590.442667l-66.325333-66.389333c-8.362667-8.341333-21.845333-8.341333-30.208 0-8.362667 8.426667-8.362667 21.866667 0 30.208l66.325333 66.389333-51.264 51.242667-66.325333-66.346667c-8.362667-8.384-21.845333-8.384-30.208 0s-8.362667 21.824 0 30.208l66.325333 66.346667L428.8 753.365333l-66.325333-66.325333c-8.384-8.384-21.845333-8.384-30.229333 0-8.362667 8.341333-8.362667 21.824 0 30.208l66.346667 66.325333-51.264 51.285333-66.346667-66.368c-8.362667-8.384-21.845333-8.384-30.229333 0-8.362667 8.426667-8.362667 21.866667 0 30.208l66.346667 66.368-51.242667 51.242667-159.936-159.914667 540.181333-540.16 159.914667 159.914667L591.722667 590.442667zM836.202667 134.805333 887.466667 186.069333l-105.514667 105.578667-51.264-51.264L836.202667 134.805333zM495.168 150.357333c-22.698667 22.72-62.336 22.72-85.013333 0-23.424-23.445333-23.424-61.589333 0-85.013333 11.370667-11.392 26.474667-17.621333 42.517333-17.621333 16.064 0 31.189333 6.272 42.496 17.6 11.349333 11.349333 17.621333 26.453333 17.621333 42.496C512.789333 123.882667 506.517333 138.986667 495.168 150.357333zM963.754667 618.837333c-22.741333 22.741333-62.336 22.741333-85.077333 0-23.381333-23.381333-23.381333-61.504 0-84.949333 11.370667-11.349333 26.496-17.6 42.538667-17.6 16.085333 0 31.168 6.272 42.538667 17.6C987.2 557.290667 987.2 595.413333 963.754667 618.837333z" p-id="6012"></path></svg>