<?xml version="1.0" standalone="no"?><!DOCTYPE svg PUBLIC "-//W3C//DTD SVG 1.1//EN" "http://www.w3.org/Graphics/SVG/1.1/DTD/svg11.dtd"><svg t="1624522147485" class="icon" viewBox="0 0 1072 1024" version="1.1" xmlns="http://www.w3.org/2000/svg" p-id="13777" xmlns:xlink="http://www.w3.org/1999/xlink" width="209.375" height="200"><defs><style type="text/css"></style></defs><path d="M363.27619 904.533333V546.133333H229.180952c-60.952381 0-107.27619-31.695238-107.27619-90.209523S168.228571 365.714286 229.180952 365.714286H682.666667c17.066667 0 31.695238 14.628571 31.695238 31.695238 0 17.066667-14.628571 31.695238-31.695238 31.695238H229.180952c-29.257143 0-43.885714 9.752381-43.885714 26.819048 0 19.504762 12.190476 26.819048 43.885714 26.819047h177.980953c12.190476 0 21.942857 9.752381 21.942857 21.942857V902.095238c0 24.380952 4.87619 31.695238 14.628571 31.695238s14.628571-7.314286 14.628572-31.695238v-168.228571c0-34.133333 29.257143-63.390476 65.828571-63.390477h41.447619c36.571429 0 65.828571 29.257143 65.828572 63.390477v170.666666c0 24.380952 4.87619 31.695238 14.628571 31.695238s14.628571-7.314286 14.628572-31.695238V504.685714c0-12.190476 9.752381-21.942857 21.942857-21.942857h187.733333c29.257143 0 43.885714-9.752381 43.885714-26.819047s-12.190476-26.819048-43.885714-26.819048h-51.2c-17.066667 0-31.695238-12.190476-34.133333-29.257143-2.438095-19.504762 12.190476-34.133333 31.695238-34.133333h53.638095c60.952381 0 107.27619 31.695238 107.27619 90.209524 0 58.514286-46.32381 90.209524-107.27619 90.209523h-146.285714v358.4c0 53.638095-26.819048 92.647619-80.457143 92.647619-53.638095 0-80.457143-39.009524-80.457143-92.647619V731.428571h-41.447619v170.666667c0 53.638095-26.819048 92.647619-80.457143 92.647619-51.2 2.438095-78.019048-36.571429-78.019048-90.209524z m185.295239-555.885714c-82.895238 0-153.6-68.266667-153.6-148.723809s68.266667-148.72381 153.6-148.72381c82.895238 0 153.6 68.266667 153.6 148.72381s-70.704762 148.72381-153.6 148.723809z m0-63.390476c48.761905 0 87.771429-39.009524 87.771428-87.771429s-39.009524-87.771429-87.771428-87.771428-87.771429 39.009524-87.771429 87.771428 39.009524 87.771429 87.771429 87.771429z" p-id="13778"></path></svg>